<?xml version="1.0" encoding="UTF-8" standalone="no"?><svg xmlns="http://www.w3.org/2000/svg" xmlns:xlink="http://www.w3.org/1999/xlink" fill="#000000" height="154.1" preserveAspectRatio="xMidYMid meet" version="1" viewBox="203.4 179.0 105.3 154.1" width="105.3" zoomAndPan="magnify"><g id="change1_1"><path d="M 230.613281 243.542969 L 230.613281 243.527344 C 229.578125 241.222656 228.832031 238.746094 228.492188 236.160156 L 228.492188 236.144531 C 228.292969 234.859375 228.214844 233.558594 228.214844 232.242188 C 228.214844 231.839844 228.230469 231.46875 228.246094 231.082031 L 228.246094 231.066406 C 228.386719 227.445312 229.222656 223.992188 230.644531 220.851562 L 230.644531 220.835938 C 231.3125 219.363281 232.101562 217.972656 232.996094 216.640625 L 233.011719 216.625 C 236.296875 211.796875 241.0625 208.066406 246.664062 206.066406 C 249.59375 205.015625 252.734375 204.457031 256 204.457031 C 259.265625 204.457031 262.425781 205.015625 265.335938 206.066406 C 275.75 209.769531 283.289062 219.519531 283.753906 231.066406 L 283.753906 231.082031 C 283.769531 231.46875 283.785156 231.839844 283.785156 232.242188 C 283.785156 242.289062 278.445312 251.097656 270.425781 255.988281 L 270.394531 256.003906 C 266.199219 258.542969 261.277344 260.015625 256 260.015625 C 250.738281 260.015625 245.800781 258.542969 241.589844 256.003906 L 241.558594 255.988281 C 236.757812 253.046875 232.90625 248.730469 230.613281 243.542969 Z M 308.613281 230.496094 C 307.714844 203.035156 285.347656 180.589844 257.890625 179.628906 C 240.582031 179.027344 225.039062 186.796875 215.027344 199.179688 L 215.011719 199.195312 C 213.277344 201.347656 211.699219 203.636719 210.320312 206.066406 C 208.417969 209.382812 206.867188 212.910156 205.707031 216.625 L 205.707031 216.640625 C 205.289062 218.035156 204.902344 219.410156 204.609375 220.835938 L 204.609375 220.851562 C 203.867188 224.148438 203.449219 227.570312 203.371094 231.066406 L 203.371094 231.082031 C 203.355469 231.46875 203.355469 231.855469 203.355469 232.242188 C 203.355469 233.542969 203.402344 234.84375 203.507812 236.144531 L 203.507812 236.160156 C 203.679688 238.652344 204.050781 241.128906 204.578125 243.527344 L 204.578125 243.542969 C 205.535156 247.925781 207.039062 252.105469 209.019531 255.988281 L 209.019531 256.003906 C 209.53125 257.011719 210.074219 258.003906 210.660156 258.976562 C 210.785156 259.210938 210.925781 259.441406 211.078125 259.675781 C 211.714844 260.742188 212.378906 261.792969 213.027344 262.863281 C 215.925781 267.554688 218.835938 272.242188 221.605469 277.011719 L 228.460938 288.882812 L 230.707031 292.800781 L 251.324219 328.496094 L 252.347656 330.289062 C 253.972656 333.105469 258.027344 333.105469 259.636719 330.289062 L 260.273438 329.207031 L 287.609375 281.839844 L 287.625 281.808594 L 289.960938 277.753906 C 290.164062 277.429688 290.363281 277.089844 290.550781 276.746094 L 290.566406 276.714844 C 292.765625 272.9375 294.945312 269.179688 297.238281 265.480469 L 297.253906 265.445312 C 298.164062 263.976562 299.078125 262.519531 300.039062 261.082031 C 301.851562 258.3125 303.414062 255.371094 304.699219 252.273438 C 307.238281 246.113281 308.644531 239.332031 308.644531 232.242188 C 308.644531 231.65625 308.628906 231.066406 308.613281 230.496094" fill="#000000"/></g></svg>